# xmcd
#
# Track frame offsets: 
#        150
#        56017
#        106615
#        127367
#        157537
#        190207
#        232300
#        270787
#
# Disc length: 4246 seconds
#
# Revision: 6
# Processed by: cddbd v1.5.2PL0 Copyright (c) Steve Scherf et al.
# Submitted via: ExactAudioCopy v1.3
#
DISCID=63109408
DTITLE=Bela Drahos and Nicolaus Esterhazy Sinfonia - Beethoven Symphonie
DTITLE=s No 2 and 5
DYEAR=1995
DGENRE=Classical
TTITLE0=Beethoven Symphony No 2 in D Op 36 - 1 Adagio molto-Allegro co
TTITLE0=n brio
TTITLE1=Beethoven Symphony No 2 in D Op 36 - 2 Larghetto
TTITLE2=Beethoven Symphony No 2 in D Op 36 - 3 Scherzo(Allegro)
TTITLE3=Beethoven Symphony No 2 in D Op 36 - 4 Allegro molto
TTITLE4=Beethoven Symphony No 5 in c minor Op 67 - 1 Allegro con brio
TTITLE5=Beethoven Symphony No 5 in c minor Op 67 - 2 Andante con moto
TTITLE6=Beethoven Symphony No 5 in c minor Op 67 - 3 Allegro
TTITLE7=Beethoven Symphony No 5 in c minor Op 67 - 4 Allegro
EXTD=
EXTT0=
EXTT1=
EXTT2=
EXTT3=
EXTT4=
EXTT5=
EXTT6=
EXTT7=
PLAYORDER=
